<svg xmlns="http://www.w3.org/2000/svg" viewBox="0 0 14 16" width="14"><path fill="#989898" fill-rule="evenodd" d="M13.47 13.393c-.065-.075-.158-.147-.276-.22-.018-.01-.067-.04-.147-.084-.08-.045-.143-.084-.192-.117-.048-.032-.11-.09-.188-.17-.077-.08-.14-.164-.183-.254-.044-.09-.088-.21-.13-.362-.04-.152-.064-.32-.07-.504-.084.072-.13.212-.14.424-.01.21.037.426.135.647.096.22.243.362.44.43.192.064.344.135.46.208.117.075.192.158.225.255.033.094-.023.197-.165.308-.144.11-.372.22-.687.327-.434.148-.743.276-.924.38-.183.103-.45.3-.8.593-.238.196-.49.302-.76.317-.267.014-.484-.084-.65-.294-.167-.212-.22-.512-.16-.9.112-.744.11-1.323-.008-1.74-.095-.326-.116-.615-.062-.865.053-.25.137-.395.25-.437.112-.043.234.047.365.267.01.03.04.088.08.175.042.087.075.147.103.183.026.036.067.08.12.14.055.056.122.095.202.12.08.024.174.04.28.044.203.006.384-.036.546-.126.16-.09.28-.19.36-.298.08-.11.16-.215.242-.317.08-.1.15-.158.21-.17.066-.01.126-.076.18-.195.053-.12.088-.284.106-.495.018-.21.004-.464-.044-.754-.09-.517-.266-1.085-.53-1.706-.265-.618-.562-1.103-.888-1.454-.59-.626-.985-1.274-1.187-1.946-.208-.71-.298-1.346-.268-1.91.03-.405-.06-.845-.263-1.318-.204-.474-.478-.834-.816-1.084-.214-.16-.48-.284-.795-.37-.316-.087-.63-.126-.947-.122-.387 0-.697.062-.93.188-.476.256-.79.567-.946.932-.155.366-.227.817-.214 1.352.024 1.18.072 2.1.144 2.768-.084.31-.453.89-1.107 1.74-.12.12-.236.28-.348.482-.113.202-.203.383-.268.545-.065.16-.153.393-.263.695-.11.304-.19.518-.237.644-.042.107-.107.232-.195.375-.09.143-.162.284-.214.42-.054.138-.084.293-.09.464-.007.13 0 .244.018.34.024.144.068.188.134.134.267-.202.604-.083 1.01.358.284.31.787 1.03 1.507 2.16.06.1.12.208.178.326.06.116.116.27.17.464.054.194.077.367.067.522-.01.155-.077.297-.206.428-.127.13-.32.214-.576.25-.137.018-.302.006-.496-.036-.193-.043-.44-.11-.737-.206-.297-.095-.517-.16-.66-.196-.21-.047-.505-.108-.89-.183-.383-.075-.634-.13-.753-.165-.203-.053-.312-.13-.33-.23-.018-.085.024-.228.126-.43.1-.202.15-.347.15-.437.008-.065.005-.13-.007-.196-.01-.065-.024-.116-.04-.15-.015-.037-.04-.09-.077-.16-.036-.073-.06-.127-.072-.16-.108-.25-.123-.42-.044-.51.054-.078.18-.11.383-.09.304.03.55-.015.742-.135.315-.195.41-.512.285-.946 0 .202-.036.354-.107.455-.072.102-.196.207-.376.313-.1.06-.28.095-.535.108-.257.012-.427.054-.51.126-.06.054-.09.134-.093.242-.004.108.01.215.04.326.03.11.06.237.09.38.03.143.042.262.036.357-.007.066-.06.228-.16.487-.102.26-.123.457-.062.595.03.065.08.124.15.174.073.05.173.093.3.13.128.035.245.063.353.084.108.02.256.048.446.08.19.033.342.06.455.085.38.077.815.206 1.303.384.49.177.82.27.992.275.167.006.327-.028.478-.103.152-.075.28-.16.39-.255.107-.095.265-.184.477-.268.21-.084.448-.128.71-.134.12-.007.293-.014.518-.023.227-.01.395-.013.51-.013.512 0 .897.003 1.16.008.178.006.32.034.42.085.1.05.166.11.196.174.03.066.08.142.148.227.068.087.156.157.263.21.226.107.492.15.796.128.303-.02.506-.078.607-.174.167-.16.392-.35.674-.572.283-.22.537-.387.764-.5l.243-.115c.113-.053.21-.1.286-.138.075-.04.17-.088.28-.147.11-.06.2-.114.267-.165.07-.05.14-.108.21-.175.07-.065.117-.13.138-.196.02-.066.028-.133.023-.2-.016-.072-.052-.143-.118-.217zm-4.785-8.63c.018-.012.03-.016.036-.013.007.003.02.014.037.036l.05.058.06.072c.027.03.056.054.086.072.036.025.078.04.13.05.05.007.09.024.115.043.026.022.045.057.058.104.012.065.002.126-.03.178-.033.054-.077.077-.13.072-.107-.025-.223-.118-.347-.28-.127-.166-.148-.295-.065-.39zM7.578 1.295c.03-.04.047-.07.054-.093.01-.036.013-.073.005-.11-.01-.04-.007-.078.008-.117.015-.04.05-.06.103-.067.054 0 .126.044.214.134.018.01.045.03.085.054.04.024.065.044.08.062.014.018.023.033.023.044-.012.03-.04.05-.08.062-.04.012-.087.018-.134.018-.048 0-.075.003-.08.008-.048.018-.093.044-.134.08-.04.036-.075.062-.098.08-.025.018-.048.018-.072 0-.025-.036-.033-.06-.026-.075.005-.015.023-.04.052-.08zM3.256 7.978c.04-.048.072-.087.09-.116.018-.03.035-.07.05-.12.014-.052.027-.09.04-.112.01-.025.03-.033.054-.026.01-.004.02.003.026.018.007.014.008.022.008.022v.027c0 .01 0 .022-.005.037l-.014.04c-.006.012-.01.03-.018.054-.006.026-.01.045-.018.063-.024.06-.06.113-.11.16-.05.048-.09.07-.112.062-.036-.013-.032-.05.008-.107zm5.84 5.508c-.01.19-.052.46-.12.803-.07.344-.11.574-.13.687-.125-.007-.195-.053-.213-.14-.018-.086 0-.197.054-.334.13-.398.2-.672.205-.82.012-.275-.018-.43-.09-.465-.065-.047-.166.043-.303.268-.264.43-.79.687-1.58.777-.715.095-1.21-.01-1.484-.32-.06-.044-.12-.05-.178-.024-.06.025-.098.054-.116.084-.006.01 0 .03.018.054l.085.107c.04.048.07.095.093.144.232.404.21.678-.062.82 0-.274-.02-.483-.062-.628-.042-.146-.126-.307-.25-.482-.125-.176-.21-.31-.26-.397.18-.018.314-.086.407-.205.094-.12.135-.247.127-.384-.01-.137-.06-.25-.157-.34-.054-.054-.33-.28-.83-.682-.5-.402-.81-.67-.93-.808-.024-.025-.095-.084-.214-.178-.12-.095-.194-.178-.223-.25-.275-.6-.304-1.096-.09-1.483l.036-.044c.028-.007.03.047.007.16-.036.166-.047.332-.036.5.025.374.132.654.323.838.125.126.21.116.26-.026.035-.047.05-.224.048-.527-.002-.304.003-.51.014-.616.048-.34.19-.76.425-1.26.234-.5.42-.767.557-.803-.108-.173-.142-.36-.103-.563.04-.203.1-.376.188-.518.087-.142.175-.308.263-.494.09-.188.134-.356.134-.505 0-.04.002-.072.01-.09.016-.054.092.012.222.196.25.37.438.586.563.652.13.072.276.068.438-.01.16-.077.36-.206.594-.384.235-.177.436-.31.603-.392.018-.007.045-.02.085-.04.04-.022.068-.037.09-.045.02-.008.047-.023.08-.04l.075-.045c.017-.01.035-.026.053-.04.018-.016.03-.03.036-.045.006-.015.01-.028.01-.04-.012-.055-.038-.087-.078-.1-.04-.01-.09-.004-.156.024-.066.026-.14.062-.22.108-.08.044-.17.095-.267.152-.1.057-.198.11-.3.156-.1.048-.21.09-.32.126-.114.035-.222.056-.323.06-.25.008-.45-.058-.597-.195-.095-.09-.146-.145-.152-.17-.007-.024.02-.03.08-.017.32.042.556.047.705.018.155-.025.362-.094.625-.206.054-.025.19-.082.407-.175.217-.09.385-.157.504-.193.07-.018.12-.045.146-.084.026-.04.036-.076.026-.108-.008-.033-.027-.06-.058-.075-.066-.036-.126-.012-.178.072-.03.053-.093.106-.188.156s-.183.09-.263.116c-.08.025-.183.058-.31.092-.124.036-.19.057-.204.062-.326.102-.63.146-.91.134-.13-.006-.237-.024-.317-.06-.08-.03-.136-.07-.165-.115-.03-.044-.077-.1-.144-.17-.065-.068-.14-.125-.223-.174-.058-.03-.08-.084-.066-.16.015-.078.06-.16.14-.243.005-.006.066-.042.18-.11.117-.07.2-.14.246-.21.054-.085.146-.17.276-.26.007-.025.01-.09.013-.197.003-.108-.027-.223-.086-.348-.058-.125-.14-.187-.24-.187-.145-.007-.244.036-.305.125-.06.09-.087.2-.08.33.006.113.033.212.084.3.05.086.096.128.14.128.064-.007.085.018.06.072-.035.065-.082.108-.143.126-.04.01-.087-.028-.138-.12-.05-.094-.09-.205-.116-.336-.026-.13-.037-.242-.03-.33.01-.184.06-.36.146-.53.087-.17.21-.252.37-.245.168.006.3.107.403.303.1.196.148.464.143.804.018.042.064.057.14.044.074-.012.172-.013.293-.005.123.01.21.042.264.094.006 0 .01-.044.01-.134-.108-.75.158-1.15.795-1.197.093.018.173.04.24.067.066.026.136.072.21.134.076.062.138.154.19.273.05.12.09.267.12.445v.33c0 .19-.04.297-.116.322-.126.042-.214.04-.268-.005-.054-.045-.047-.125.018-.238.06-.148.047-.32-.036-.517-.083-.196-.235-.286-.456-.268-.148.006-.256.086-.32.242-.067.154-.09.306-.073.454.017.15.05.227.097.232.036.006.142.054.317.144.176.09.308.142.396.16.232.047.364.122.397.223.033.1.02.248-.04.443-.06.194-.077.352-.055.478.025.13.07.25.134.358.066.107.136.205.21.294.074.09.16.256.262.5.1.242.193.55.276.918l.067.062c.04.036.078.08.117.134.04.054.085.126.14.22.053.092.11.226.173.406.062.177.12.383.175.615.065.275.1.594.103.956.003.363.026.612.072.746.044.134.16.19.344.165.232-.01.38-.137.446-.375.196-.69.036-1.52-.482-2.482-.196-.376-.365-.622-.51-.74.21.118.424.342.644.668.22.328.36.634.42.92l.05.236c.025.127.04.203.043.224l.036.183c.022.102.032.167.032.197s.003.088.01.174c.006.088.004.155-.005.202-.01.047-.018.11-.026.193-.01.08-.024.158-.044.232l-.066.244c.326.145.49.27.49.377-.12-.1-.3-.167-.533-.2-.232-.032-.447 0-.646.094-.2.096-.3.254-.308.474-.214 0-.366.054-.456.16-.13.155-.2.364-.205.63-.006.265.017.554.068.866.05.313.07.53.058.656zM5.354 3.138c-.018-.006-.032-.024-.044-.054 0-.053.026-.075.08-.062.036.012.07.058.103.134.033.077.04.167.023.268 0 .018-.008.026-.026.026-.065 0-.09-.06-.072-.178.018-.09-.003-.134-.064-.134zm2.314.144l-.018.026c-.047.03-.072.036-.072.018-.024-.16-.077-.253-.16-.277l-.036-.02c-.042-.035-.02-.057.062-.06.018-.008.044.002.08.025.036.024.07.06.098.11.03.053.046.11.046.177z"/></svg>